<mxfile>
    <diagram id="yIMw4871CEeumzVxW-Ht" name="Listener">
        <mxGraphModel dx="1245" dy="645" grid="1" gridSize="10" guides="1" tooltips="1" connect="1" arrows="1" fold="1" page="1" pageScale="1" pageWidth="850" pageHeight="1100" math="0" shadow="0">
            <root>
                <mxCell id="0"/>
                <mxCell id="1" parent="0"/>
                <mxCell id="2" value="Class Listener" style="rounded=0;whiteSpace=wrap;html=1;fontSize=23;fillColor=#dae8fc;strokeColor=#6c8ebf;fontStyle=1;fontColor=#000000;" parent="1" vertex="1">
                    <mxGeometry x="550" y="210" width="600" height="40" as="geometry"/>
                </mxCell>
                <mxCell id="3" value="Property" style="rounded=0;whiteSpace=wrap;html=1;fontSize=15;fontStyle=2;fillColor=#d5e8d4;strokeColor=#82b366;fontColor=#000000;" parent="1" vertex="1">
                    <mxGeometry x="550" y="250" width="160" height="40" as="geometry"/>
                </mxCell>
                <mxCell id="4" value="Type" style="rounded=0;whiteSpace=wrap;html=1;fontSize=15;fontStyle=2;fillColor=#d5e8d4;strokeColor=#82b366;fontColor=#000000;" parent="1" vertex="1">
                    <mxGeometry x="710" y="250" width="180" height="40" as="geometry"/>
                </mxCell>
                <mxCell id="5" value="subject" style="rounded=0;whiteSpace=wrap;html=1;fontSize=15;fontStyle=1;fontColor=#FFFFFF;" parent="1" vertex="1">
                    <mxGeometry x="550" y="290" width="160" height="40" as="geometry"/>
                </mxCell>
                <mxCell id="6" value="Goal" style="rounded=0;whiteSpace=wrap;html=1;fontSize=15;fontStyle=2;fillColor=#d5e8d4;strokeColor=#82b366;fontColor=#000000;" parent="1" vertex="1">
                    <mxGeometry x="890" y="250" width="260" height="40" as="geometry"/>
                </mxCell>
                <mxCell id="7" value="string" style="rounded=0;whiteSpace=wrap;html=1;fontSize=15;fontStyle=0;fontColor=#FFFFFF;" parent="1" vertex="1">
                    <mxGeometry x="710" y="290" width="180" height="40" as="geometry"/>
                </mxCell>
                <mxCell id="8" value="Name of the channel this listener is going to listen to" style="rounded=0;whiteSpace=wrap;html=1;fontSize=15;fontStyle=0;fontColor=#FFFFFF;" parent="1" vertex="1">
                    <mxGeometry x="890" y="290" width="260" height="40" as="geometry"/>
                </mxCell>
                <mxCell id="9" value="client" style="rounded=0;whiteSpace=wrap;html=1;fontSize=15;fontStyle=1;fontColor=#FFFFFF;" parent="1" vertex="1">
                    <mxGeometry x="550" y="370" width="160" height="40" as="geometry"/>
                </mxCell>
                <mxCell id="10" value="Stan" style="rounded=0;whiteSpace=wrap;html=1;fontSize=15;fontStyle=0;fontColor=#FFFFFF;" parent="1" vertex="1">
                    <mxGeometry x="710" y="370" width="180" height="40" as="geometry"/>
                </mxCell>
                <mxCell id="11" value="Pre-initialized NATS client" style="rounded=0;whiteSpace=wrap;html=1;fontSize=15;fontStyle=0;fontColor=#FFFFFF;" parent="1" vertex="1">
                    <mxGeometry x="890" y="370" width="260" height="40" as="geometry"/>
                </mxCell>
                <mxCell id="12" value="queueGroupName" style="rounded=0;whiteSpace=wrap;html=1;fontSize=15;fontStyle=1;fontColor=#FFFFFF;" parent="1" vertex="1">
                    <mxGeometry x="550" y="410" width="160" height="40" as="geometry"/>
                </mxCell>
                <mxCell id="13" value="string" style="rounded=0;whiteSpace=wrap;html=1;fontSize=15;fontStyle=0;fontColor=#FFFFFF;" parent="1" vertex="1">
                    <mxGeometry x="710" y="410" width="180" height="40" as="geometry"/>
                </mxCell>
                <mxCell id="37" value="" style="edgeStyle=orthogonalEdgeStyle;rounded=0;orthogonalLoop=1;jettySize=auto;html=1;" edge="1" parent="1" source="14" target="36">
                    <mxGeometry relative="1" as="geometry"/>
                </mxCell>
                <mxCell id="14" value="Name of the queue group this listener will join" style="rounded=0;whiteSpace=wrap;html=1;fontSize=15;fontStyle=0;fontColor=#FFFFFF;" parent="1" vertex="1">
                    <mxGeometry x="890" y="410" width="260" height="40" as="geometry"/>
                </mxCell>
                <mxCell id="15" value="ackWait" style="rounded=0;whiteSpace=wrap;html=1;fontSize=15;fontStyle=1;fontColor=#FFFFFF;" parent="1" vertex="1">
                    <mxGeometry x="550" y="450" width="160" height="40" as="geometry"/>
                </mxCell>
                <mxCell id="16" value="number" style="rounded=0;whiteSpace=wrap;html=1;fontSize=15;fontStyle=0;fontColor=#FFFFFF;" parent="1" vertex="1">
                    <mxGeometry x="710" y="450" width="180" height="40" as="geometry"/>
                </mxCell>
                <mxCell id="17" value="Number of seconds this listener has to ack a message" style="rounded=0;whiteSpace=wrap;html=1;fontSize=15;fontStyle=0;fontColor=#FFFFFF;" parent="1" vertex="1">
                    <mxGeometry x="890" y="450" width="260" height="40" as="geometry"/>
                </mxCell>
                <mxCell id="18" value="subscriptionOptions" style="rounded=0;whiteSpace=wrap;html=1;fontSize=15;fontStyle=1;fontColor=#FFFFFF;" parent="1" vertex="1">
                    <mxGeometry x="550" y="490" width="160" height="40" as="geometry"/>
                </mxCell>
                <mxCell id="19" value="SubscriptionOptions" style="rounded=0;whiteSpace=wrap;html=1;fontSize=15;fontStyle=0;fontColor=#FFFFFF;" parent="1" vertex="1">
                    <mxGeometry x="710" y="490" width="180" height="40" as="geometry"/>
                </mxCell>
                <mxCell id="20" value="Default subscription options" style="rounded=0;whiteSpace=wrap;html=1;fontSize=15;fontStyle=0;fontColor=#FFFFFF;" parent="1" vertex="1">
                    <mxGeometry x="890" y="490" width="260" height="40" as="geometry"/>
                </mxCell>
                <mxCell id="21" value="listen" style="rounded=0;whiteSpace=wrap;html=1;fontSize=15;fontStyle=1;fontColor=#FFFFFF;" parent="1" vertex="1">
                    <mxGeometry x="550" y="530" width="160" height="40" as="geometry"/>
                </mxCell>
                <mxCell id="22" value="() =&amp;gt; void" style="rounded=0;whiteSpace=wrap;html=1;fontSize=15;fontStyle=0;fontColor=#FFFFFF;" parent="1" vertex="1">
                    <mxGeometry x="710" y="530" width="180" height="40" as="geometry"/>
                </mxCell>
                <mxCell id="23" value="Code to set up the subscription" style="rounded=0;whiteSpace=wrap;html=1;fontSize=15;fontStyle=0;fontColor=#FFFFFF;" parent="1" vertex="1">
                    <mxGeometry x="890" y="530" width="260" height="40" as="geometry"/>
                </mxCell>
                <mxCell id="24" value="parseMessage" style="rounded=0;whiteSpace=wrap;html=1;fontSize=15;fontStyle=1;fontColor=#FFFFFF;" parent="1" vertex="1">
                    <mxGeometry x="550" y="570" width="160" height="40" as="geometry"/>
                </mxCell>
                <mxCell id="25" value="(msg: Message) =&amp;gt; any" style="rounded=0;whiteSpace=wrap;html=1;fontSize=15;fontStyle=0;fontColor=#FFFFFF;" parent="1" vertex="1">
                    <mxGeometry x="710" y="570" width="180" height="40" as="geometry"/>
                </mxCell>
                <mxCell id="26" value="Helper function to parse a message" style="rounded=0;whiteSpace=wrap;html=1;fontSize=15;fontStyle=0;fontColor=#FFFFFF;" parent="1" vertex="1">
                    <mxGeometry x="890" y="570" width="260" height="40" as="geometry"/>
                </mxCell>
                <mxCell id="27" value="abstract" style="rounded=0;whiteSpace=wrap;html=1;fontSize=15;fillColor=#f8cecc;strokeColor=#b85450;fontColor=#000000;" parent="1" vertex="1">
                    <mxGeometry x="480" y="295" width="70" height="30" as="geometry"/>
                </mxCell>
                <mxCell id="28" value="abstract" style="rounded=0;whiteSpace=wrap;html=1;fontSize=15;fillColor=#f8cecc;strokeColor=#b85450;fontColor=#000000;" parent="1" vertex="1">
                    <mxGeometry x="480" y="335" width="70" height="30" as="geometry"/>
                </mxCell>
                <mxCell id="29" value="onMessage" style="rounded=0;whiteSpace=wrap;html=1;fontSize=15;fontStyle=1;fontColor=#FFFFFF;" parent="1" vertex="1">
                    <mxGeometry x="550" y="330" width="160" height="40" as="geometry"/>
                </mxCell>
                <mxCell id="30" value="(event: EventData) =&amp;gt; void" style="rounded=0;whiteSpace=wrap;html=1;fontSize=15;fontStyle=0;fontColor=#FFFFFF;" parent="1" vertex="1">
                    <mxGeometry x="710" y="330" width="180" height="40" as="geometry"/>
                </mxCell>
                <mxCell id="31" value="Function to run when a message is received" style="rounded=0;whiteSpace=wrap;html=1;fontSize=15;fontStyle=0;fontColor=#FFFFFF;" parent="1" vertex="1">
                    <mxGeometry x="890" y="330" width="260" height="40" as="geometry"/>
                </mxCell>
                <mxCell id="32" value="abstract" style="rounded=0;whiteSpace=wrap;html=1;fontSize=15;fillColor=#f8cecc;strokeColor=#b85450;fontColor=#000000;" parent="1" vertex="1">
                    <mxGeometry x="480" y="415" width="70" height="30" as="geometry"/>
                </mxCell>
                <mxCell id="36" value="When the publisher has sent a message, the queue group makes sure that is sent only to one of the listeners from this queue" style="shape=note;whiteSpace=wrap;html=1;backgroundOutline=1;darkOpacity=0.05;rounded=0;fontSize=15;fontColor=#FFFFFF;fontStyle=0;fillColor=#999900;" vertex="1" parent="1">
                    <mxGeometry x="1320" y="330" width="190" height="150" as="geometry"/>
                </mxCell>
            </root>
        </mxGraphModel>
    </diagram>
    <diagram id="SQnJcOTNjw2Bhr15RbaY" name="Events published">
        &#xa;
        <mxGraphModel dx="2486" dy="4396" grid="1" gridSize="10" guides="1" tooltips="1" connect="1" arrows="1" fold="1" page="1" pageScale="1" pageWidth="850" pageHeight="1100" math="0" shadow="0">
            &#xa;
            <root>
                &#xa;
                <mxCell id="m2UphPcYfu7wOC4dk3fX-0"/>
                &#xa;
                <mxCell id="m2UphPcYfu7wOC4dk3fX-1" parent="m2UphPcYfu7wOC4dk3fX-0"/>
                &#xa;
                <mxCell id="m2UphPcYfu7wOC4dk3fX-10" value="&lt;font style=&quot;font-size: 33px&quot;&gt;Tickets Service&lt;/font&gt;" style="rounded=0;whiteSpace=wrap;html=1;" parent="m2UphPcYfu7wOC4dk3fX-1" vertex="1">
                    &#xa;
                    <mxGeometry x="240" y="200" width="320" height="80" as="geometry"/>
                    &#xa;
                </mxCell>
                &#xa;
                <mxCell id="m2UphPcYfu7wOC4dk3fX-14" value="" style="rounded=0;whiteSpace=wrap;html=1;" parent="m2UphPcYfu7wOC4dk3fX-1" vertex="1">
                    &#xa;
                    <mxGeometry x="240" y="280" width="320" height="290" as="geometry"/>
                    &#xa;
                </mxCell>
                &#xa;
                <mxCell id="m2UphPcYfu7wOC4dk3fX-15" value="&lt;span style=&quot;font-size: 33px&quot;&gt;Orders Service&lt;/span&gt;" style="rounded=0;whiteSpace=wrap;html=1;" parent="m2UphPcYfu7wOC4dk3fX-1" vertex="1">
                    &#xa;
                    <mxGeometry x="670" y="200" width="320" height="80" as="geometry"/>
                    &#xa;
                </mxCell>
                &#xa;
                <mxCell id="m2UphPcYfu7wOC4dk3fX-29" style="edgeStyle=orthogonalEdgeStyle;rounded=0;orthogonalLoop=1;jettySize=auto;html=1;exitX=0.5;exitY=1;exitDx=0;exitDy=0;entryX=0.5;entryY=0;entryDx=0;entryDy=0;strokeWidth=6;fontSize=29;fontColor=#000000;" parent="m2UphPcYfu7wOC4dk3fX-1" source="m2UphPcYfu7wOC4dk3fX-16" target="m2UphPcYfu7wOC4dk3fX-27" edge="1">
                    &#xa;
                    <mxGeometry relative="1" as="geometry"/>
                    &#xa;
                </mxCell>
                &#xa;
                <mxCell id="m2UphPcYfu7wOC4dk3fX-16" value="" style="rounded=0;whiteSpace=wrap;html=1;" parent="m2UphPcYfu7wOC4dk3fX-1" vertex="1">
                    &#xa;
                    <mxGeometry x="670" y="280" width="320" height="290" as="geometry"/>
                    &#xa;
                </mxCell>
                &#xa;
                <mxCell id="m2UphPcYfu7wOC4dk3fX-17" value="&lt;span style=&quot;font-size: 33px&quot;&gt;Payments Service&lt;/span&gt;" style="rounded=0;whiteSpace=wrap;html=1;" parent="m2UphPcYfu7wOC4dk3fX-1" vertex="1">
                    &#xa;
                    <mxGeometry x="1090" y="200" width="320" height="80" as="geometry"/>
                    &#xa;
                </mxCell>
                &#xa;
                <mxCell id="m2UphPcYfu7wOC4dk3fX-18" value="" style="rounded=0;whiteSpace=wrap;html=1;" parent="m2UphPcYfu7wOC4dk3fX-1" vertex="1">
                    &#xa;
                    <mxGeometry x="1090" y="280" width="320" height="290" as="geometry"/>
                    &#xa;
                </mxCell>
                &#xa;
                <mxCell id="m2UphPcYfu7wOC4dk3fX-19" value="&lt;span style=&quot;font-size: 33px&quot;&gt;Expiration Service&lt;/span&gt;" style="rounded=0;whiteSpace=wrap;html=1;" parent="m2UphPcYfu7wOC4dk3fX-1" vertex="1">
                    &#xa;
                    <mxGeometry x="1520" y="200" width="320" height="80" as="geometry"/>
                    &#xa;
                </mxCell>
                &#xa;
                <mxCell id="m2UphPcYfu7wOC4dk3fX-20" value="" style="rounded=0;whiteSpace=wrap;html=1;" parent="m2UphPcYfu7wOC4dk3fX-1" vertex="1">
                    &#xa;
                    <mxGeometry x="1520" y="280" width="320" height="290" as="geometry"/>
                    &#xa;
                </mxCell>
                &#xa;
                <mxCell id="m2UphPcYfu7wOC4dk3fX-21" value="&lt;font style=&quot;font-size: 28px&quot;&gt;orders&lt;/font&gt;" style="rounded=0;whiteSpace=wrap;html=1;fillColor=#d5e8d4;strokeColor=#82b366;fontColor=#000000;fontStyle=1" parent="m2UphPcYfu7wOC4dk3fX-1" vertex="1">
                    &#xa;
                    <mxGeometry x="710" y="330" width="230" height="70" as="geometry"/>
                    &#xa;
                </mxCell>
                &#xa;
                <mxCell id="m2UphPcYfu7wOC4dk3fX-22" value="&lt;font style=&quot;font-size: 28px&quot;&gt;tickets&lt;/font&gt;" style="rounded=0;whiteSpace=wrap;html=1;fillColor=#e1d5e7;strokeColor=#9673a6;fontColor=#000000;fontStyle=1" parent="m2UphPcYfu7wOC4dk3fX-1" vertex="1">
                    &#xa;
                    <mxGeometry x="710" y="440" width="230" height="70" as="geometry"/>
                    &#xa;
                </mxCell>
                &#xa;
                <mxCell id="m2UphPcYfu7wOC4dk3fX-23" value="&lt;font style=&quot;font-size: 28px&quot; color=&quot;#000000&quot;&gt;tickets&lt;/font&gt;" style="rounded=0;whiteSpace=wrap;html=1;fillColor=#d5e8d4;strokeColor=#82b366;fontStyle=1" parent="m2UphPcYfu7wOC4dk3fX-1" vertex="1">
                    &#xa;
                    <mxGeometry x="270" y="330" width="230" height="70" as="geometry"/>
                    &#xa;
                </mxCell>
                &#xa;
                <mxCell id="m2UphPcYfu7wOC4dk3fX-24" value="&lt;font style=&quot;font-size: 28px&quot;&gt;orders&lt;/font&gt;" style="rounded=0;whiteSpace=wrap;html=1;fillColor=#d5e8d4;strokeColor=#82b366;fontColor=#000000;fontStyle=1" parent="m2UphPcYfu7wOC4dk3fX-1" vertex="1">
                    &#xa;
                    <mxGeometry x="1135" y="330" width="230" height="70" as="geometry"/>
                    &#xa;
                </mxCell>
                &#xa;
                <mxCell id="m2UphPcYfu7wOC4dk3fX-25" value="&lt;font style=&quot;font-size: 28px&quot;&gt;charges&lt;/font&gt;" style="rounded=0;whiteSpace=wrap;html=1;fillColor=#e1d5e7;strokeColor=#9673a6;fontColor=#000000;fontStyle=1" parent="m2UphPcYfu7wOC4dk3fX-1" vertex="1">
                    &#xa;
                    <mxGeometry x="1135" y="440" width="230" height="70" as="geometry"/>
                    &#xa;
                </mxCell>
                &#xa;
                <mxCell id="m2UphPcYfu7wOC4dk3fX-62" style="edgeStyle=orthogonalEdgeStyle;rounded=0;orthogonalLoop=1;jettySize=auto;html=1;exitX=0;exitY=0.5;exitDx=0;exitDy=0;entryX=0.5;entryY=1;entryDx=0;entryDy=0;strokeWidth=6;fontSize=29;fontColor=#000000;" parent="m2UphPcYfu7wOC4dk3fX-1" source="m2UphPcYfu7wOC4dk3fX-27" target="m2UphPcYfu7wOC4dk3fX-14" edge="1">
                    &#xa;
                    <mxGeometry relative="1" as="geometry"/>
                    &#xa;
                </mxCell>
                &#xa;
                <mxCell id="m2UphPcYfu7wOC4dk3fX-63" style="edgeStyle=orthogonalEdgeStyle;rounded=0;orthogonalLoop=1;jettySize=auto;html=1;strokeWidth=6;fontSize=29;fontColor=#000000;" parent="m2UphPcYfu7wOC4dk3fX-1" source="m2UphPcYfu7wOC4dk3fX-27" target="m2UphPcYfu7wOC4dk3fX-18" edge="1">
                    &#xa;
                    <mxGeometry relative="1" as="geometry"/>
                    &#xa;
                </mxCell>
                &#xa;
                <mxCell id="m2UphPcYfu7wOC4dk3fX-27" value="&lt;b&gt;order:cancelled&lt;/b&gt;" style="rounded=0;whiteSpace=wrap;html=1;fontSize=29;fillColor=#fff2cc;strokeColor=#d6b656;fontColor=#000000;" parent="m2UphPcYfu7wOC4dk3fX-1" vertex="1">
                    &#xa;
                    <mxGeometry x="660" y="680" width="340" height="90" as="geometry"/>
                    &#xa;
                </mxCell>
                &#xa;
                <mxCell id="m2UphPcYfu7wOC4dk3fX-30" value="&lt;font color=&quot;#ffffff&quot;&gt;Tickets Service should unreserve a&lt;br&gt;ticket if the corespond order has been cancelled. Edit option is again available&lt;br&gt;&lt;/font&gt;" style="rounded=0;whiteSpace=wrap;html=1;fontSize=29;fontColor=#000000;" parent="m2UphPcYfu7wOC4dk3fX-1" vertex="1">
                    &#xa;
                    <mxGeometry x="-200" y="660" width="560" height="145" as="geometry"/>
                    &#xa;
                </mxCell>
                &#xa;
                <mxCell id="m2UphPcYfu7wOC4dk3fX-31" value="&lt;font color=&quot;#ffffff&quot;&gt;Payments Service should know that any incoming payment for this order should be rejected&lt;/font&gt;" style="rounded=0;whiteSpace=wrap;html=1;fontSize=29;fontColor=#000000;" parent="m2UphPcYfu7wOC4dk3fX-1" vertex="1">
                    &#xa;
                    <mxGeometry x="1280" y="640" width="490" height="165" as="geometry"/>
                    &#xa;
                </mxCell>
                &#xa;
                <mxCell id="m2UphPcYfu7wOC4dk3fX-36" value="&lt;font style=&quot;font-size: 33px&quot;&gt;Tickets Service&lt;/font&gt;" style="rounded=0;whiteSpace=wrap;html=1;" parent="m2UphPcYfu7wOC4dk3fX-1" vertex="1">
                    &#xa;
                    <mxGeometry x="210" y="-810" width="320" height="80" as="geometry"/>
                    &#xa;
                </mxCell>
                &#xa;
                <mxCell id="m2UphPcYfu7wOC4dk3fX-37" value="" style="rounded=0;whiteSpace=wrap;html=1;" parent="m2UphPcYfu7wOC4dk3fX-1" vertex="1">
                    &#xa;
                    <mxGeometry x="210" y="-730" width="320" height="290" as="geometry"/>
                    &#xa;
                </mxCell>
                &#xa;
                <mxCell id="m2UphPcYfu7wOC4dk3fX-38" value="&lt;span style=&quot;font-size: 33px&quot;&gt;Orders Service&lt;/span&gt;" style="rounded=0;whiteSpace=wrap;html=1;" parent="m2UphPcYfu7wOC4dk3fX-1" vertex="1">
                    &#xa;
                    <mxGeometry x="640" y="-810" width="320" height="80" as="geometry"/>
                    &#xa;
                </mxCell>
                &#xa;
                <mxCell id="m2UphPcYfu7wOC4dk3fX-39" style="edgeStyle=orthogonalEdgeStyle;rounded=0;orthogonalLoop=1;jettySize=auto;html=1;exitX=0.5;exitY=1;exitDx=0;exitDy=0;entryX=0.5;entryY=0;entryDx=0;entryDy=0;strokeWidth=6;fontSize=29;fontColor=#000000;" parent="m2UphPcYfu7wOC4dk3fX-1" source="m2UphPcYfu7wOC4dk3fX-40" target="m2UphPcYfu7wOC4dk3fX-52" edge="1">
                    &#xa;
                    <mxGeometry relative="1" as="geometry"/>
                    &#xa;
                </mxCell>
                &#xa;
                <mxCell id="m2UphPcYfu7wOC4dk3fX-40" value="" style="rounded=0;whiteSpace=wrap;html=1;" parent="m2UphPcYfu7wOC4dk3fX-1" vertex="1">
                    &#xa;
                    <mxGeometry x="640" y="-730" width="320" height="290" as="geometry"/>
                    &#xa;
                </mxCell>
                &#xa;
                <mxCell id="m2UphPcYfu7wOC4dk3fX-41" value="&lt;span style=&quot;font-size: 33px&quot;&gt;Payments Service&lt;/span&gt;" style="rounded=0;whiteSpace=wrap;html=1;" parent="m2UphPcYfu7wOC4dk3fX-1" vertex="1">
                    &#xa;
                    <mxGeometry x="1090" y="-810" width="320" height="80" as="geometry"/>
                    &#xa;
                </mxCell>
                &#xa;
                <mxCell id="m2UphPcYfu7wOC4dk3fX-42" value="" style="rounded=0;whiteSpace=wrap;html=1;" parent="m2UphPcYfu7wOC4dk3fX-1" vertex="1">
                    &#xa;
                    <mxGeometry x="1090" y="-730" width="320" height="290" as="geometry"/>
                    &#xa;
                </mxCell>
                &#xa;
                <mxCell id="m2UphPcYfu7wOC4dk3fX-43" value="&lt;span style=&quot;font-size: 33px&quot;&gt;Expiration Service&lt;/span&gt;" style="rounded=0;whiteSpace=wrap;html=1;" parent="m2UphPcYfu7wOC4dk3fX-1" vertex="1">
                    &#xa;
                    <mxGeometry x="1930" y="-810" width="320" height="80" as="geometry"/>
                    &#xa;
                </mxCell>
                &#xa;
                <mxCell id="m2UphPcYfu7wOC4dk3fX-44" value="" style="rounded=0;whiteSpace=wrap;html=1;" parent="m2UphPcYfu7wOC4dk3fX-1" vertex="1">
                    &#xa;
                    <mxGeometry x="1930" y="-730" width="320" height="290" as="geometry"/>
                    &#xa;
                </mxCell>
                &#xa;
                <mxCell id="m2UphPcYfu7wOC4dk3fX-45" value="&lt;font style=&quot;font-size: 28px&quot;&gt;orders&lt;/font&gt;" style="rounded=0;whiteSpace=wrap;html=1;fillColor=#d5e8d4;strokeColor=#82b366;fontColor=#000000;fontStyle=1" parent="m2UphPcYfu7wOC4dk3fX-1" vertex="1">
                    &#xa;
                    <mxGeometry x="685" y="-690" width="230" height="70" as="geometry"/>
                    &#xa;
                </mxCell>
                &#xa;
                <mxCell id="m2UphPcYfu7wOC4dk3fX-46" value="&lt;font style=&quot;font-size: 28px&quot;&gt;tickets&lt;/font&gt;" style="rounded=0;whiteSpace=wrap;html=1;fillColor=#e1d5e7;strokeColor=#9673a6;fontColor=#000000;fontStyle=1" parent="m2UphPcYfu7wOC4dk3fX-1" vertex="1">
                    &#xa;
                    <mxGeometry x="685" y="-585" width="230" height="70" as="geometry"/>
                    &#xa;
                </mxCell>
                &#xa;
                <mxCell id="m2UphPcYfu7wOC4dk3fX-47" value="&lt;font style=&quot;font-size: 28px&quot; color=&quot;#000000&quot;&gt;tickets&lt;/font&gt;" style="rounded=0;whiteSpace=wrap;html=1;fillColor=#d5e8d4;strokeColor=#82b366;fontStyle=1" parent="m2UphPcYfu7wOC4dk3fX-1" vertex="1">
                    &#xa;
                    <mxGeometry x="250" y="-690" width="230" height="70" as="geometry"/>
                    &#xa;
                </mxCell>
                &#xa;
                <mxCell id="m2UphPcYfu7wOC4dk3fX-48" value="&lt;font style=&quot;font-size: 28px&quot;&gt;orders&lt;/font&gt;" style="rounded=0;whiteSpace=wrap;html=1;fillColor=#d5e8d4;strokeColor=#82b366;fontColor=#000000;fontStyle=1" parent="m2UphPcYfu7wOC4dk3fX-1" vertex="1">
                    &#xa;
                    <mxGeometry x="1135" y="-690" width="230" height="70" as="geometry"/>
                    &#xa;
                </mxCell>
                &#xa;
                <mxCell id="m2UphPcYfu7wOC4dk3fX-49" value="&lt;font style=&quot;font-size: 28px&quot;&gt;charges&lt;/font&gt;" style="rounded=0;whiteSpace=wrap;html=1;fillColor=#e1d5e7;strokeColor=#9673a6;fontColor=#000000;fontStyle=1" parent="m2UphPcYfu7wOC4dk3fX-1" vertex="1">
                    &#xa;
                    <mxGeometry x="1135" y="-585" width="230" height="70" as="geometry"/>
                    &#xa;
                </mxCell>
                &#xa;
                <mxCell id="m2UphPcYfu7wOC4dk3fX-64" style="edgeStyle=orthogonalEdgeStyle;rounded=0;orthogonalLoop=1;jettySize=auto;html=1;exitX=0;exitY=0.5;exitDx=0;exitDy=0;entryX=0.5;entryY=1;entryDx=0;entryDy=0;strokeWidth=6;fontSize=29;fontColor=#000000;" parent="m2UphPcYfu7wOC4dk3fX-1" source="m2UphPcYfu7wOC4dk3fX-52" target="m2UphPcYfu7wOC4dk3fX-37" edge="1">
                    &#xa;
                    <mxGeometry relative="1" as="geometry"/>
                    &#xa;
                </mxCell>
                &#xa;
                <mxCell id="m2UphPcYfu7wOC4dk3fX-66" style="edgeStyle=orthogonalEdgeStyle;rounded=0;orthogonalLoop=1;jettySize=auto;html=1;exitX=1;exitY=0.25;exitDx=0;exitDy=0;entryX=0.5;entryY=1;entryDx=0;entryDy=0;strokeWidth=6;fontSize=29;fontColor=#000000;" parent="m2UphPcYfu7wOC4dk3fX-1" source="m2UphPcYfu7wOC4dk3fX-52" target="m2UphPcYfu7wOC4dk3fX-42" edge="1">
                    &#xa;
                    <mxGeometry relative="1" as="geometry"/>
                    &#xa;
                </mxCell>
                &#xa;
                <mxCell id="m2UphPcYfu7wOC4dk3fX-67" style="edgeStyle=orthogonalEdgeStyle;rounded=0;orthogonalLoop=1;jettySize=auto;html=1;exitX=1;exitY=0.75;exitDx=0;exitDy=0;entryX=0.5;entryY=1;entryDx=0;entryDy=0;strokeWidth=6;fontSize=29;fontColor=#000000;" parent="m2UphPcYfu7wOC4dk3fX-1" source="m2UphPcYfu7wOC4dk3fX-52" target="m2UphPcYfu7wOC4dk3fX-44" edge="1">
                    &#xa;
                    <mxGeometry relative="1" as="geometry"/>
                    &#xa;
                </mxCell>
                &#xa;
                <mxCell id="m2UphPcYfu7wOC4dk3fX-52" value="&lt;b&gt;order:created&lt;/b&gt;" style="rounded=0;whiteSpace=wrap;html=1;fontSize=29;fillColor=#fff2cc;strokeColor=#d6b656;fontColor=#000000;" parent="m2UphPcYfu7wOC4dk3fX-1" vertex="1">
                    &#xa;
                    <mxGeometry x="640" y="-260" width="340" height="90" as="geometry"/>
                    &#xa;
                </mxCell>
                &#xa;
                <mxCell id="m2UphPcYfu7wOC4dk3fX-54" value="&lt;div&gt;&lt;span style=&quot;color: rgb(255 , 255 , 255)&quot;&gt;Tickets Service should reserve a&lt;/span&gt;&lt;/div&gt;&lt;span style=&quot;color: rgb(255 , 255 , 255)&quot;&gt;&lt;div&gt;&lt;span&gt;ticket if an order with that ticket was created. Editing option for that ticket is disabled&lt;/span&gt;&lt;/div&gt;&lt;/span&gt;" style="rounded=0;whiteSpace=wrap;html=1;fontSize=29;fontColor=#000000;align=center;" parent="m2UphPcYfu7wOC4dk3fX-1" vertex="1">
                    &#xa;
                    <mxGeometry x="-230" y="-297.5" width="580" height="165" as="geometry"/>
                    &#xa;
                </mxCell>
                &#xa;
                <mxCell id="m2UphPcYfu7wOC4dk3fX-56" value="&lt;font color=&quot;#ffffff&quot;&gt;Payments Service should know that any incoming payment for this order should be possible&lt;/font&gt;" style="rounded=0;whiteSpace=wrap;html=1;fontSize=29;fontColor=#000000;" parent="m2UphPcYfu7wOC4dk3fX-1" vertex="1">
                    &#xa;
                    <mxGeometry x="1320" y="-405" width="490" height="165" as="geometry"/>
                    &#xa;
                </mxCell>
                &#xa;
                <mxCell id="m2UphPcYfu7wOC4dk3fX-57" value="&lt;font color=&quot;#ffffff&quot;&gt;Expiration Service should start a 15 min timer to eventually time out this order&lt;/font&gt;" style="rounded=0;whiteSpace=wrap;html=1;fontSize=29;fontColor=#000000;" parent="m2UphPcYfu7wOC4dk3fX-1" vertex="1">
                    &#xa;
                    <mxGeometry x="2125" y="-360" width="490" height="165" as="geometry"/>
                    &#xa;
                </mxCell>
                &#xa;
                <mxCell id="-2gpuv0CrNag4sucA-SS-0" value="&lt;font style=&quot;font-size: 33px&quot;&gt;Tickets Service&lt;/font&gt;" style="rounded=0;whiteSpace=wrap;html=1;" vertex="1" parent="m2UphPcYfu7wOC4dk3fX-1">
                    &#xa;
                    <mxGeometry x="-110" y="-2860" width="320" height="80" as="geometry"/>
                    &#xa;
                </mxCell>
                &#xa;
                <mxCell id="-2gpuv0CrNag4sucA-SS-21" style="edgeStyle=orthogonalEdgeStyle;rounded=0;orthogonalLoop=1;jettySize=auto;html=1;exitX=0.5;exitY=1;exitDx=0;exitDy=0;entryX=0.5;entryY=0;entryDx=0;entryDy=0;strokeWidth=6;" edge="1" parent="m2UphPcYfu7wOC4dk3fX-1" source="-2gpuv0CrNag4sucA-SS-1" target="-2gpuv0CrNag4sucA-SS-16">
                    &#xa;
                    <mxGeometry relative="1" as="geometry"/>
                    &#xa;
                </mxCell>
                &#xa;
                <mxCell id="-2gpuv0CrNag4sucA-SS-1" value="" style="rounded=0;whiteSpace=wrap;html=1;" vertex="1" parent="m2UphPcYfu7wOC4dk3fX-1">
                    &#xa;
                    <mxGeometry x="-110" y="-2780" width="320" height="290" as="geometry"/>
                    &#xa;
                </mxCell>
                &#xa;
                <mxCell id="-2gpuv0CrNag4sucA-SS-2" value="&lt;span style=&quot;font-size: 33px&quot;&gt;Orders Service&lt;/span&gt;" style="rounded=0;whiteSpace=wrap;html=1;" vertex="1" parent="m2UphPcYfu7wOC4dk3fX-1">
                    &#xa;
                    <mxGeometry x="320" y="-2860" width="320" height="80" as="geometry"/>
                    &#xa;
                </mxCell>
                &#xa;
                <mxCell id="-2gpuv0CrNag4sucA-SS-4" value="" style="rounded=0;whiteSpace=wrap;html=1;" vertex="1" parent="m2UphPcYfu7wOC4dk3fX-1">
                    &#xa;
                    <mxGeometry x="320" y="-2780" width="320" height="290" as="geometry"/>
                    &#xa;
                </mxCell>
                &#xa;
                <mxCell id="-2gpuv0CrNag4sucA-SS-5" value="&lt;span style=&quot;font-size: 33px&quot;&gt;Payments Service&lt;/span&gt;" style="rounded=0;whiteSpace=wrap;html=1;" vertex="1" parent="m2UphPcYfu7wOC4dk3fX-1">
                    &#xa;
                    <mxGeometry x="740" y="-2860" width="320" height="80" as="geometry"/>
                    &#xa;
                </mxCell>
                &#xa;
                <mxCell id="-2gpuv0CrNag4sucA-SS-6" value="" style="rounded=0;whiteSpace=wrap;html=1;" vertex="1" parent="m2UphPcYfu7wOC4dk3fX-1">
                    &#xa;
                    <mxGeometry x="740" y="-2780" width="320" height="290" as="geometry"/>
                    &#xa;
                </mxCell>
                &#xa;
                <mxCell id="-2gpuv0CrNag4sucA-SS-7" value="&lt;span style=&quot;font-size: 33px&quot;&gt;Expiration Service&lt;/span&gt;" style="rounded=0;whiteSpace=wrap;html=1;" vertex="1" parent="m2UphPcYfu7wOC4dk3fX-1">
                    &#xa;
                    <mxGeometry x="1170" y="-2860" width="320" height="80" as="geometry"/>
                    &#xa;
                </mxCell>
                &#xa;
                <mxCell id="-2gpuv0CrNag4sucA-SS-8" value="" style="rounded=0;whiteSpace=wrap;html=1;" vertex="1" parent="m2UphPcYfu7wOC4dk3fX-1">
                    &#xa;
                    <mxGeometry x="1170" y="-2780" width="320" height="290" as="geometry"/>
                    &#xa;
                </mxCell>
                &#xa;
                <mxCell id="-2gpuv0CrNag4sucA-SS-9" value="&lt;font style=&quot;font-size: 28px&quot;&gt;orders&lt;/font&gt;" style="rounded=0;whiteSpace=wrap;html=1;fillColor=#d5e8d4;strokeColor=#82b366;fontColor=#000000;fontStyle=1" vertex="1" parent="m2UphPcYfu7wOC4dk3fX-1">
                    &#xa;
                    <mxGeometry x="360" y="-2730" width="230" height="70" as="geometry"/>
                    &#xa;
                </mxCell>
                &#xa;
                <mxCell id="-2gpuv0CrNag4sucA-SS-10" value="&lt;font style=&quot;font-size: 28px&quot;&gt;tickets&lt;/font&gt;" style="rounded=0;whiteSpace=wrap;html=1;fillColor=#e1d5e7;strokeColor=#9673a6;fontColor=#000000;fontStyle=1" vertex="1" parent="m2UphPcYfu7wOC4dk3fX-1">
                    &#xa;
                    <mxGeometry x="360" y="-2620" width="230" height="70" as="geometry"/>
                    &#xa;
                </mxCell>
                &#xa;
                <mxCell id="-2gpuv0CrNag4sucA-SS-11" value="&lt;font style=&quot;font-size: 28px&quot; color=&quot;#000000&quot;&gt;tickets&lt;/font&gt;" style="rounded=0;whiteSpace=wrap;html=1;fillColor=#d5e8d4;strokeColor=#82b366;fontStyle=1" vertex="1" parent="m2UphPcYfu7wOC4dk3fX-1">
                    &#xa;
                    <mxGeometry x="-80" y="-2730" width="230" height="70" as="geometry"/>
                    &#xa;
                </mxCell>
                &#xa;
                <mxCell id="-2gpuv0CrNag4sucA-SS-12" value="&lt;font style=&quot;font-size: 28px&quot;&gt;orders&lt;/font&gt;" style="rounded=0;whiteSpace=wrap;html=1;fillColor=#d5e8d4;strokeColor=#82b366;fontColor=#000000;fontStyle=1" vertex="1" parent="m2UphPcYfu7wOC4dk3fX-1">
                    &#xa;
                    <mxGeometry x="785" y="-2730" width="230" height="70" as="geometry"/>
                    &#xa;
                </mxCell>
                &#xa;
                <mxCell id="-2gpuv0CrNag4sucA-SS-13" value="&lt;font style=&quot;font-size: 28px&quot;&gt;charges&lt;/font&gt;" style="rounded=0;whiteSpace=wrap;html=1;fillColor=#e1d5e7;strokeColor=#9673a6;fontColor=#000000;fontStyle=1" vertex="1" parent="m2UphPcYfu7wOC4dk3fX-1">
                    &#xa;
                    <mxGeometry x="785" y="-2620" width="230" height="70" as="geometry"/>
                    &#xa;
                </mxCell>
                &#xa;
                <mxCell id="-2gpuv0CrNag4sucA-SS-22" style="edgeStyle=orthogonalEdgeStyle;rounded=0;orthogonalLoop=1;jettySize=auto;html=1;exitX=1;exitY=0.5;exitDx=0;exitDy=0;strokeWidth=6;" edge="1" parent="m2UphPcYfu7wOC4dk3fX-1" source="-2gpuv0CrNag4sucA-SS-16" target="-2gpuv0CrNag4sucA-SS-4">
                    &#xa;
                    <mxGeometry relative="1" as="geometry"/>
                    &#xa;
                </mxCell>
                &#xa;
                <mxCell id="-2gpuv0CrNag4sucA-SS-16" value="&lt;b&gt;ticket:created&lt;/b&gt;" style="rounded=0;whiteSpace=wrap;html=1;fontSize=29;fillColor=#fff2cc;strokeColor=#d6b656;fontColor=#000000;" vertex="1" parent="m2UphPcYfu7wOC4dk3fX-1">
                    &#xa;
                    <mxGeometry x="-120" y="-2320" width="340" height="90" as="geometry"/>
                    &#xa;
                </mxCell>
                &#xa;
                <mxCell id="-2gpuv0CrNag4sucA-SS-17" value="&lt;font color=&quot;#ffffff&quot;&gt;Orders needs to know about the tickets that can be purchased. An important info is the price on the ticket.&amp;nbsp;&lt;/font&gt;" style="rounded=0;whiteSpace=wrap;html=1;fontSize=29;fontColor=#000000;" vertex="1" parent="m2UphPcYfu7wOC4dk3fX-1">
                    &#xa;
                    <mxGeometry x="320" y="-2240" width="490" height="165" as="geometry"/>
                    &#xa;
                </mxCell>
                &#xa;
                <mxCell id="-2gpuv0CrNag4sucA-SS-18" value="&lt;font style=&quot;font-size: 100px&quot; color=&quot;#000000&quot;&gt;ORDERS&lt;/font&gt;" style="rounded=0;whiteSpace=wrap;html=1;fillColor=#1ba1e2;strokeColor=#006EAF;fontColor=#ffffff;" vertex="1" parent="m2UphPcYfu7wOC4dk3fX-1">
                    &#xa;
                    <mxGeometry x="-530" y="-1100" width="720" height="180" as="geometry"/>
                    &#xa;
                </mxCell>
                &#xa;
                <mxCell id="-2gpuv0CrNag4sucA-SS-20" value="&lt;font style=&quot;font-size: 100px&quot; color=&quot;#000000&quot;&gt;TICKETS&lt;/font&gt;" style="rounded=0;whiteSpace=wrap;html=1;fillColor=#1ba1e2;strokeColor=#006EAF;fontColor=#ffffff;" vertex="1" parent="m2UphPcYfu7wOC4dk3fX-1">
                    &#xa;
                    <mxGeometry x="-560" y="-3210" width="720" height="180" as="geometry"/>
                    &#xa;
                </mxCell>
                &#xa;
                <mxCell id="-2gpuv0CrNag4sucA-SS-23" value="&lt;font style=&quot;font-size: 33px&quot;&gt;Tickets Service&lt;/font&gt;" style="rounded=0;whiteSpace=wrap;html=1;" vertex="1" parent="m2UphPcYfu7wOC4dk3fX-1">
                    &#xa;
                    <mxGeometry x="-110" y="-1990" width="320" height="80" as="geometry"/>
                    &#xa;
                </mxCell>
                &#xa;
                <mxCell id="-2gpuv0CrNag4sucA-SS-24" style="edgeStyle=orthogonalEdgeStyle;rounded=0;orthogonalLoop=1;jettySize=auto;html=1;exitX=0.5;exitY=1;exitDx=0;exitDy=0;entryX=0.5;entryY=0;entryDx=0;entryDy=0;strokeWidth=6;" edge="1" parent="m2UphPcYfu7wOC4dk3fX-1" source="-2gpuv0CrNag4sucA-SS-25" target="-2gpuv0CrNag4sucA-SS-38">
                    &#xa;
                    <mxGeometry relative="1" as="geometry"/>
                    &#xa;
                </mxCell>
                &#xa;
                <mxCell id="-2gpuv0CrNag4sucA-SS-25" value="" style="rounded=0;whiteSpace=wrap;html=1;" vertex="1" parent="m2UphPcYfu7wOC4dk3fX-1">
                    &#xa;
                    <mxGeometry x="-110" y="-1910" width="320" height="290" as="geometry"/>
                    &#xa;
                </mxCell>
                &#xa;
                <mxCell id="-2gpuv0CrNag4sucA-SS-26" value="&lt;span style=&quot;font-size: 33px&quot;&gt;Orders Service&lt;/span&gt;" style="rounded=0;whiteSpace=wrap;html=1;" vertex="1" parent="m2UphPcYfu7wOC4dk3fX-1">
                    &#xa;
                    <mxGeometry x="320" y="-1990" width="320" height="80" as="geometry"/>
                    &#xa;
                </mxCell>
                &#xa;
                <mxCell id="-2gpuv0CrNag4sucA-SS-27" value="" style="rounded=0;whiteSpace=wrap;html=1;" vertex="1" parent="m2UphPcYfu7wOC4dk3fX-1">
                    &#xa;
                    <mxGeometry x="320" y="-1910" width="320" height="290" as="geometry"/>
                    &#xa;
                </mxCell>
                &#xa;
                <mxCell id="-2gpuv0CrNag4sucA-SS-28" value="&lt;span style=&quot;font-size: 33px&quot;&gt;Payments Service&lt;/span&gt;" style="rounded=0;whiteSpace=wrap;html=1;" vertex="1" parent="m2UphPcYfu7wOC4dk3fX-1">
                    &#xa;
                    <mxGeometry x="740" y="-1990" width="320" height="80" as="geometry"/>
                    &#xa;
                </mxCell>
                &#xa;
                <mxCell id="-2gpuv0CrNag4sucA-SS-29" value="" style="rounded=0;whiteSpace=wrap;html=1;" vertex="1" parent="m2UphPcYfu7wOC4dk3fX-1">
                    &#xa;
                    <mxGeometry x="740" y="-1910" width="320" height="290" as="geometry"/>
                    &#xa;
                </mxCell>
                &#xa;
                <mxCell id="-2gpuv0CrNag4sucA-SS-30" value="&lt;span style=&quot;font-size: 33px&quot;&gt;Expiration Service&lt;/span&gt;" style="rounded=0;whiteSpace=wrap;html=1;" vertex="1" parent="m2UphPcYfu7wOC4dk3fX-1">
                    &#xa;
                    <mxGeometry x="1170" y="-1990" width="320" height="80" as="geometry"/>
                    &#xa;
                </mxCell>
                &#xa;
                <mxCell id="-2gpuv0CrNag4sucA-SS-31" value="" style="rounded=0;whiteSpace=wrap;html=1;" vertex="1" parent="m2UphPcYfu7wOC4dk3fX-1">
                    &#xa;
                    <mxGeometry x="1170" y="-1910" width="320" height="290" as="geometry"/>
                    &#xa;
                </mxCell>
                &#xa;
                <mxCell id="-2gpuv0CrNag4sucA-SS-32" value="&lt;font style=&quot;font-size: 28px&quot;&gt;orders&lt;/font&gt;" style="rounded=0;whiteSpace=wrap;html=1;fillColor=#d5e8d4;strokeColor=#82b366;fontColor=#000000;fontStyle=1" vertex="1" parent="m2UphPcYfu7wOC4dk3fX-1">
                    &#xa;
                    <mxGeometry x="360" y="-1860" width="230" height="70" as="geometry"/>
                    &#xa;
                </mxCell>
                &#xa;
                <mxCell id="-2gpuv0CrNag4sucA-SS-33" value="&lt;font style=&quot;font-size: 28px&quot;&gt;tickets&lt;/font&gt;" style="rounded=0;whiteSpace=wrap;html=1;fillColor=#e1d5e7;strokeColor=#9673a6;fontColor=#000000;fontStyle=1" vertex="1" parent="m2UphPcYfu7wOC4dk3fX-1">
                    &#xa;
                    <mxGeometry x="360" y="-1750" width="230" height="70" as="geometry"/>
                    &#xa;
                </mxCell>
                &#xa;
                <mxCell id="-2gpuv0CrNag4sucA-SS-34" value="&lt;font style=&quot;font-size: 28px&quot; color=&quot;#000000&quot;&gt;tickets&lt;/font&gt;" style="rounded=0;whiteSpace=wrap;html=1;fillColor=#d5e8d4;strokeColor=#82b366;fontStyle=1" vertex="1" parent="m2UphPcYfu7wOC4dk3fX-1">
                    &#xa;
                    <mxGeometry x="-80" y="-1860" width="230" height="70" as="geometry"/>
                    &#xa;
                </mxCell>
                &#xa;
                <mxCell id="-2gpuv0CrNag4sucA-SS-35" value="&lt;font style=&quot;font-size: 28px&quot;&gt;orders&lt;/font&gt;" style="rounded=0;whiteSpace=wrap;html=1;fillColor=#d5e8d4;strokeColor=#82b366;fontColor=#000000;fontStyle=1" vertex="1" parent="m2UphPcYfu7wOC4dk3fX-1">
                    &#xa;
                    <mxGeometry x="785" y="-1860" width="230" height="70" as="geometry"/>
                    &#xa;
                </mxCell>
                &#xa;
                <mxCell id="-2gpuv0CrNag4sucA-SS-36" value="&lt;font style=&quot;font-size: 28px&quot;&gt;charges&lt;/font&gt;" style="rounded=0;whiteSpace=wrap;html=1;fillColor=#e1d5e7;strokeColor=#9673a6;fontColor=#000000;fontStyle=1" vertex="1" parent="m2UphPcYfu7wOC4dk3fX-1">
                    &#xa;
                    <mxGeometry x="785" y="-1750" width="230" height="70" as="geometry"/>
                    &#xa;
                </mxCell>
                &#xa;
                <mxCell id="-2gpuv0CrNag4sucA-SS-37" style="edgeStyle=orthogonalEdgeStyle;rounded=0;orthogonalLoop=1;jettySize=auto;html=1;exitX=1;exitY=0.5;exitDx=0;exitDy=0;strokeWidth=6;" edge="1" parent="m2UphPcYfu7wOC4dk3fX-1" source="-2gpuv0CrNag4sucA-SS-38" target="-2gpuv0CrNag4sucA-SS-27">
                    &#xa;
                    <mxGeometry relative="1" as="geometry"/>
                    &#xa;
                </mxCell>
                &#xa;
                <mxCell id="-2gpuv0CrNag4sucA-SS-38" value="&lt;b&gt;ticket:updated&lt;/b&gt;" style="rounded=0;whiteSpace=wrap;html=1;fontSize=29;fillColor=#fff2cc;strokeColor=#d6b656;fontColor=#000000;" vertex="1" parent="m2UphPcYfu7wOC4dk3fX-1">
                    &#xa;
                    <mxGeometry x="-120" y="-1450" width="340" height="90" as="geometry"/>
                    &#xa;
                </mxCell>
                &#xa;
                <mxCell id="-2gpuv0CrNag4sucA-SS-39" value="&lt;font color=&quot;#ffffff&quot;&gt;Orders Service needs to know when a price of a ticket has changed. It also needs to know when a ticket has been successfully been reserved.&lt;/font&gt;" style="rounded=0;whiteSpace=wrap;html=1;fontSize=29;fontColor=#000000;" vertex="1" parent="m2UphPcYfu7wOC4dk3fX-1">
                    &#xa;
                    <mxGeometry x="320" y="-1370" width="490" height="165" as="geometry"/>
                    &#xa;
                </mxCell>
                &#xa;
            </root>
            &#xa;
        </mxGraphModel>
        &#xa;
    </diagram>
</mxfile>